<svg width="123" height="163" viewBox="0 0 123 163" fill="none" xmlns="http://www.w3.org/2000/svg">
<rect width="123" height="163" rx="22" fill="#FFE4DB" fill-opacity="0.73"/>
<path d="M20.2381 126.08V124.8H27.3581V126.08H24.4781V136H23.1181V126.08H20.2381ZM27.5059 130.336L26.8819 129.392C27.1592 129.189 27.5379 128.987 28.0179 128.784C28.5085 128.581 29.0952 128.48 29.7779 128.48C30.6312 128.48 31.3245 128.677 31.8579 129.072C32.3912 129.456 32.6579 130.005 32.6579 130.72V136H31.3779V135.008C31.1432 135.392 30.7912 135.68 30.3219 135.872C29.8525 136.064 29.3939 136.16 28.9459 136.16C28.4979 136.16 28.0765 136.069 27.6819 135.888C27.2979 135.696 26.9885 135.424 26.7539 135.072C26.5192 134.72 26.4019 134.293 26.4019 133.792C26.4019 133.077 26.6525 132.507 27.1539 132.08C27.6659 131.643 28.3752 131.424 29.2819 131.424C29.7725 131.424 30.1885 131.483 30.5299 131.6C30.8819 131.707 31.1645 131.829 31.3779 131.968V130.896C31.3779 130.395 31.2125 130.053 30.8819 129.872C30.5619 129.691 30.1725 129.6 29.7139 129.6C29.1592 129.6 28.6952 129.691 28.3219 129.872C27.9485 130.053 27.6765 130.208 27.5059 130.336ZM27.6979 133.728C27.6979 134.155 27.8419 134.485 28.1299 134.72C28.4285 134.944 28.8125 135.056 29.2819 135.056C29.8685 135.056 30.3645 134.88 30.7699 134.528C31.1752 134.176 31.3779 133.707 31.3779 133.12V132.848C31.0792 132.699 30.7752 132.592 30.4659 132.528C30.1565 132.464 29.8312 132.432 29.4899 132.432C28.8712 132.432 28.4179 132.549 28.1299 132.784C27.8419 133.008 27.6979 133.323 27.6979 133.728ZM38.745 128.64H40.345L37.145 131.68L40.665 136H39.065L36.025 132.272V136H34.745V123.52H36.025V131.216L38.745 128.64ZM41.8719 125.6C41.8719 125.355 41.9572 125.147 42.1279 124.976C42.3092 124.805 42.5172 124.72 42.7519 124.72C42.9972 124.72 43.2052 124.805 43.3759 124.976C43.5465 125.147 43.6319 125.355 43.6319 125.6C43.6319 125.835 43.5465 126.043 43.3759 126.224C43.2052 126.395 42.9972 126.48 42.7519 126.48C42.5172 126.48 42.3092 126.395 42.1279 126.224C41.9572 126.043 41.8719 125.835 41.8719 125.6ZM42.1119 128.64H43.3919V136H42.1119V128.64ZM50.7481 131.52C50.7481 130.293 50.2255 129.68 49.1801 129.68C48.6255 129.68 48.1721 129.851 47.8201 130.192C47.4788 130.533 47.3081 130.976 47.3081 131.52V136H46.0281V128.64H47.3081V129.792C47.7881 128.917 48.5188 128.48 49.5001 128.48C50.2788 128.48 50.8921 128.741 51.3401 129.264C51.7988 129.776 52.0281 130.475 52.0281 131.36V136H50.7481V131.52ZM53.9384 136.48H55.2344C55.2344 136.832 55.3304 137.157 55.5224 137.456C55.7144 137.765 55.9864 138.011 56.3384 138.192C56.6904 138.384 57.1064 138.48 57.5864 138.48C57.9597 138.48 58.3277 138.389 58.6904 138.208C59.053 138.027 59.3517 137.739 59.5864 137.344C59.8317 136.96 59.9544 136.459 59.9544 135.84V134.736C59.6877 135.195 59.3357 135.547 58.8984 135.792C58.4717 136.037 57.9864 136.16 57.4424 136.16C56.781 136.16 56.173 136.005 55.6184 135.696C55.0637 135.387 54.621 134.944 54.2904 134.368C53.9597 133.792 53.7944 133.109 53.7944 132.32C53.7944 131.52 53.9597 130.837 54.2904 130.272C54.621 129.696 55.0637 129.253 55.6184 128.944C56.173 128.635 56.781 128.48 57.4424 128.48C57.9864 128.48 58.4717 128.603 58.8984 128.848C59.3357 129.093 59.6877 129.445 59.9544 129.904V128.64H61.2344V135.84C61.2344 136.683 61.0584 137.387 60.7064 137.952C60.3544 138.528 59.901 138.96 59.3464 139.248C58.7917 139.536 58.205 139.68 57.5864 139.68C56.8717 139.68 56.237 139.547 55.6824 139.28C55.1384 139.013 54.7117 138.635 54.4024 138.144C54.093 137.664 53.9384 137.109 53.9384 136.48ZM55.0904 132.32C55.0904 132.885 55.2024 133.365 55.4264 133.76C55.661 134.155 55.9704 134.453 56.3544 134.656C56.7384 134.859 57.1544 134.96 57.6024 134.96C57.9757 134.96 58.3437 134.859 58.7064 134.656C59.069 134.453 59.3677 134.155 59.6024 133.76C59.837 133.365 59.9544 132.885 59.9544 132.32C59.9544 131.755 59.837 131.275 59.6024 130.88C59.3677 130.485 59.069 130.187 58.7064 129.984C58.3437 129.781 57.9757 129.68 57.6024 129.68C57.1544 129.68 56.7384 129.781 56.3544 129.984C55.9704 130.187 55.661 130.485 55.4264 130.88C55.2024 131.275 55.0904 131.755 55.0904 132.32ZM67.2363 128.64H68.6763L70.5163 133.424L72.5163 128.08L74.6603 133.456L76.5163 128.64H77.9563L74.7563 136.56L72.5323 131.2L70.4363 136.56L67.2363 128.64ZM79.6153 130.336L78.9913 129.392C79.2686 129.189 79.6473 128.987 80.1273 128.784C80.6179 128.581 81.2046 128.48 81.8873 128.48C82.7406 128.48 83.4339 128.677 83.9673 129.072C84.5006 129.456 84.7673 130.005 84.7673 130.72V136H83.4873V135.008C83.2526 135.392 82.9006 135.68 82.4313 135.872C81.9619 136.064 81.5033 136.16 81.0553 136.16C80.6073 136.16 80.1859 136.069 79.7913 135.888C79.4073 135.696 79.0979 135.424 78.8633 135.072C78.6286 134.72 78.5113 134.293 78.5113 133.792C78.5113 133.077 78.7619 132.507 79.2633 132.08C79.7753 131.643 80.4846 131.424 81.3913 131.424C81.8819 131.424 82.2979 131.483 82.6393 131.6C82.9913 131.707 83.2739 131.829 83.4873 131.968V130.896C83.4873 130.395 83.3219 130.053 82.9913 129.872C82.6713 129.691 82.2819 129.6 81.8233 129.6C81.2686 129.6 80.8046 129.691 80.4313 129.872C80.0579 130.053 79.7859 130.208 79.6153 130.336ZM79.8073 133.728C79.8073 134.155 79.9513 134.485 80.2393 134.72C80.5379 134.944 80.9219 135.056 81.3913 135.056C81.9779 135.056 82.4739 134.88 82.8793 134.528C83.2846 134.176 83.4873 133.707 83.4873 133.12V132.848C83.1886 132.699 82.8846 132.592 82.5753 132.528C82.2659 132.464 81.9406 132.432 81.5993 132.432C80.9806 132.432 80.5273 132.549 80.2393 132.784C79.9513 133.008 79.8073 133.323 79.8073 133.728ZM86.9344 123.52H88.2144V136H86.9344V123.52ZM94.5419 128.64H96.1419L92.9419 131.68L96.4619 136H94.8619L91.8219 132.272V136H90.5419V123.52H91.8219V131.216L94.5419 128.64ZM97.9728 133.744C98.1968 134.085 98.4688 134.379 98.7888 134.624C99.1194 134.869 99.5141 134.992 99.9728 134.992C100.335 134.992 100.618 134.912 100.821 134.752C101.034 134.581 101.141 134.352 101.141 134.064C101.141 133.808 101.055 133.595 100.885 133.424C100.725 133.243 100.517 133.093 100.261 132.976C100.005 132.848 99.7328 132.731 99.4448 132.624C99.1248 132.496 98.7994 132.347 98.4688 132.176C98.1488 131.995 97.8768 131.765 97.6528 131.488C97.4394 131.2 97.3328 130.843 97.3328 130.416C97.3328 129.979 97.4448 129.616 97.6688 129.328C97.9034 129.04 98.2021 128.827 98.5648 128.688C98.9381 128.549 99.3221 128.48 99.7168 128.48C100.303 128.48 100.837 128.619 101.317 128.896C101.797 129.173 102.149 129.515 102.373 129.92L101.349 130.576C101.146 130.299 100.89 130.069 100.581 129.888C100.282 129.707 99.9408 129.616 99.5568 129.616C99.2901 129.616 99.0608 129.675 98.8688 129.792C98.6768 129.909 98.5807 130.091 98.5807 130.336C98.5807 130.635 98.7354 130.88 99.0448 131.072C99.3648 131.253 99.7221 131.424 100.117 131.584C100.543 131.755 100.933 131.941 101.285 132.144C101.637 132.336 101.914 132.571 102.117 132.848C102.33 133.125 102.437 133.483 102.437 133.92C102.437 134.56 102.202 135.093 101.733 135.52C101.274 135.947 100.666 136.16 99.9088 136.16C99.4181 136.16 98.9754 136.075 98.5807 135.904C98.1861 135.723 97.8501 135.493 97.5728 135.216C97.3061 134.939 97.1034 134.656 96.9648 134.368L97.9728 133.744Z" fill="#083651"/>
<g filter="url(#filter0_d)">
<path d="M76.9688 61.7656L72.3281 67.9531L64.5938 71.0469L59.9531 74.1406L56.8594 71.0469V67.9531L61.5 66.4062L69.2344 61.7656L73.875 52.4844L77.0592 60.1035L76.9688 61.7656Z" fill="#FDC9A6"/>
<path d="M81.6094 81.875L86.25 95.7969L95.5312 108.172L100.172 100.438L93.9844 92.7031L89.3438 74.1406L81.6094 81.875Z" fill="#A8A8A8"/>
<path d="M66.1406 108.172L63.0469 111.266V114.359H75.4219V108.172H66.1406Z" fill="#683B0D"/>
<path d="M89.3438 71.6569V69.5H76.9688L66.1406 88.0625V108.172H75.4219V89.6094L81.6094 83.4219L86.4936 78.5376C87.3972 77.634 88.114 76.5613 88.603 75.3807C89.0921 74.2001 89.3438 72.9348 89.3438 71.6569V71.6569Z" fill="#CBCBCB"/>
<path d="M55.3125 100.438V106.625L52.2188 114.359H58.4062L61.5 106.625V101.598L56.8594 95.7969L55.3125 100.438Z" fill="#C38325"/>
<path d="M33.6562 98.8906L28.4172 102.82C28.145 103.024 27.9477 103.312 27.8558 103.64C27.7639 103.967 27.7826 104.316 27.909 104.632L30.5625 111.266L35.2031 109.719L33.6562 105.078L36.75 101.984L33.6562 98.8906Z" fill="#C38325"/>
<path d="M89.3437 69.5V50.4427C89.3437 49.7566 89.141 49.0859 88.761 48.5147L84.7031 42.4162H76.9687L78.5156 45.5099L73.9199 51.8391C73.4275 52.5173 73.104 53.3031 72.9762 54.1313C72.8484 54.9596 72.92 55.8064 73.1851 56.6014C73.404 57.2579 73.75 57.8648 74.2035 58.3876C74.6569 58.9103 75.2089 59.3386 75.8279 59.648L76.9687 60.2188V69.5H89.3437Z" fill="#FF6268"/>
<path d="M82.7566 53.9968L86.25 63.3125L85.7312 70.811L83.9297 74.1406L87.1056 76.9648L90.8906 76.2676L92.4375 61.7656L88.9093 51.7589C88.7643 51.3478 88.5388 50.9698 88.2458 50.6471C87.9528 50.3243 87.5983 50.0633 87.2032 49.8794C86.808 49.6955 86.38 49.5923 85.9445 49.576C85.5089 49.5597 85.0744 49.6305 84.6666 49.7843C83.8553 50.0904 83.1985 50.7058 82.8404 51.4956C82.4823 52.2853 82.4522 53.1849 82.7566 53.9968V53.9968Z" fill="#FDC9A6"/>
<path d="M95.5312 108.172V112.813H101.719L104.812 105.078L100.172 100.438L95.5312 108.172Z" fill="#683B0D"/>
<path d="M75.4219 31.588V37.7755C75.4219 38.1858 75.5848 38.5792 75.8749 38.8693C76.165 39.1594 76.5585 39.3224 76.9688 39.3224H78.5156V42.4162H84.7031V39.3224L86.25 34.6818H83.1562L81.6094 31.588H75.4219Z" fill="#FDC9A6"/>
<path d="M75.4219 31.588L74.8167 29.7726C74.5462 28.9611 74.5501 28.0833 74.8277 27.2743C75.1053 26.4653 75.6412 25.77 76.3529 25.2955C76.9933 24.8685 77.7459 24.6406 78.5156 24.6406C79.2854 24.6406 80.0379 24.8685 80.6784 25.2955L83.1563 26.9474H86.0129C86.549 26.9474 87.0745 27.0967 87.5305 27.3785C87.9865 27.6603 88.355 28.0635 88.5947 28.543C88.8222 28.9981 88.9254 29.5053 88.8938 30.0132C88.8622 30.521 88.6969 31.0115 88.4147 31.4349L86.25 34.6818H83.1563L81.6094 31.588H75.4219Z" fill="#683B0D"/>
<path d="M63.0469 86.5156C63.9765 85.586 64.6289 84.4159 64.931 83.1364C65.2331 81.8568 65.1729 80.5185 64.7571 79.2712L64.5938 78.7813L66.9473 79.3697C68.0943 79.6565 69.1364 80.2631 69.9522 81.1188C70.7681 81.9745 71.3243 83.0443 71.5562 84.2036C71.7873 85.3591 71.6867 86.5564 71.2662 87.6571C70.8456 88.7578 70.1223 89.7171 69.1797 90.4242L66.1406 92.7031L63.0469 86.5156Z" fill="#C38325"/>
<path d="M24.375 81.875L21.2812 83.4219L19.7344 86.5156L16.6406 88.0625L19.7344 94.25L25.9219 92.7031L30.5625 94.25L31.3421 97.3683C31.5797 98.3185 32.0394 99.1987 32.6834 99.9365C33.3275 100.674 34.1375 101.249 35.0469 101.613L39.8438 103.531V106.625L36.75 114.359H42.9375L46.0312 108.172V103.531L55.3125 100.438L56.8594 95.7969L63.0469 103.531L68.2676 106.625L71.0465 114.359H75.4219L73.875 103.531L69.2344 98.8906V95.7195C69.2344 94.2958 68.9141 92.8902 68.2974 91.607C67.6806 90.3237 66.7831 89.1956 65.6713 88.3062C62.9711 86.1459 59.6161 84.9689 56.1581 84.9688H53.3016C52.581 84.9688 51.8613 85.02 51.1479 85.1219L44.9158 86.0114C42.5977 86.3425 40.2343 86.1294 38.0128 85.3889L32.1094 83.4219L27.4688 77.2344L24.375 81.875Z" fill="#EA9D2D"/>
<path d="M59.5007 73.6882C59.4059 73.7829 37.8348 86.1308 37.8348 86.1308L31.8503 95.1085C31.6226 95.4501 31.2685 95.6872 30.866 95.7677C30.4635 95.8482 30.0455 95.7655 29.704 95.5378C29.3624 95.3101 29.1253 94.956 29.0448 94.5535C28.9643 94.151 29.047 93.733 29.2747 93.3915L35.4622 84.1102C35.596 83.9106 35.774 83.7445 35.9824 83.6249L57.2712 71.4587L59.5007 73.6882Z" fill="#0292C9"/>
<path d="M25.9219 87.6758C26.6694 87.6758 27.2754 87.0698 27.2754 86.3223C27.2754 85.5748 26.6694 84.9688 25.9219 84.9688C25.1743 84.9688 24.5684 85.5748 24.5684 86.3223C24.5684 87.0698 25.1743 87.6758 25.9219 87.6758Z" fill="#C38325"/>
</g>
<defs>
<filter id="filter0_d" x="8" y="18" width="107" height="107" filterUnits="userSpaceOnUse" color-interpolation-filters="sRGB">
<feFlood flood-opacity="0" result="BackgroundImageFix"/>
<feColorMatrix in="SourceAlpha" type="matrix" values="0 0 0 0 0 0 0 0 0 0 0 0 0 0 0 0 0 0 127 0"/>
<feOffset dy="2"/>
<feGaussianBlur stdDeviation="2"/>
<feColorMatrix type="matrix" values="0 0 0 0 0 0 0 0 0 0 0 0 0 0 0 0 0 0 0.25 0"/>
<feBlend mode="normal" in2="BackgroundImageFix" result="effect1_dropShadow"/>
<feBlend mode="normal" in="SourceGraphic" in2="effect1_dropShadow" result="shape"/>
</filter>
</defs>
</svg>
