<svg width="123" height="163" viewBox="0 0 123 163" fill="none" xmlns="http://www.w3.org/2000/svg">
<rect width="123" height="163" rx="22" fill="#FFE4DB" fill-opacity="0.73"/>
<path d="M52.4073 131.8H53.9273L50.1993 138.168V143H48.8393V138.184L45.1113 131.8H46.6313L49.5113 136.984L52.4073 131.8ZM52.9663 139.32C52.9663 138.573 53.1316 137.912 53.4622 137.336C53.8036 136.76 54.2623 136.307 54.8383 135.976C55.4143 135.645 56.0596 135.48 56.7743 135.48C57.4996 135.48 58.1449 135.645 58.7103 135.976C59.2863 136.307 59.7396 136.76 60.0703 137.336C60.4116 137.912 60.5823 138.573 60.5823 139.32C60.5823 140.056 60.4116 140.717 60.0703 141.304C59.7396 141.88 59.2863 142.333 58.7103 142.664C58.1449 142.995 57.4996 143.16 56.7743 143.16C56.0596 143.16 55.4143 142.995 54.8383 142.664C54.2623 142.333 53.8036 141.88 53.4622 141.304C53.1316 140.717 52.9663 140.056 52.9663 139.32ZM54.2623 139.32C54.2623 139.832 54.3689 140.285 54.5823 140.68C54.8063 141.075 55.1049 141.389 55.4783 141.624C55.8623 141.848 56.2943 141.96 56.7743 141.96C57.2543 141.96 57.6809 141.848 58.0543 141.624C58.4383 141.389 58.7369 141.075 58.9503 140.68C59.1743 140.285 59.2863 139.832 59.2863 139.32C59.2863 138.808 59.1743 138.355 58.9503 137.96C58.7369 137.555 58.4383 137.24 58.0543 137.016C57.6809 136.792 57.2543 136.68 56.7743 136.68C56.2943 136.68 55.8623 136.792 55.4783 137.016C55.1049 137.24 54.8063 137.555 54.5823 137.96C54.3689 138.355 54.2623 138.808 54.2623 139.32ZM61.8446 143.48H63.1406C63.1406 143.832 63.2366 144.157 63.4286 144.456C63.6206 144.765 63.8926 145.011 64.2446 145.192C64.5966 145.384 65.0126 145.48 65.4926 145.48C65.866 145.48 66.234 145.389 66.5966 145.208C66.9593 145.027 67.258 144.739 67.4926 144.344C67.738 143.96 67.8606 143.459 67.8606 142.84V141.736C67.594 142.195 67.242 142.547 66.8046 142.792C66.378 143.037 65.8926 143.16 65.3486 143.16C64.6873 143.16 64.0793 143.005 63.5246 142.696C62.97 142.387 62.5273 141.944 62.1966 141.368C61.866 140.792 61.7006 140.109 61.7006 139.32C61.7006 138.52 61.866 137.837 62.1966 137.272C62.5273 136.696 62.97 136.253 63.5246 135.944C64.0793 135.635 64.6873 135.48 65.3486 135.48C65.8926 135.48 66.378 135.603 66.8046 135.848C67.242 136.093 67.594 136.445 67.8606 136.904V135.64H69.1406V142.84C69.1406 143.683 68.9646 144.387 68.6126 144.952C68.2606 145.528 67.8073 145.96 67.2526 146.248C66.698 146.536 66.1113 146.68 65.4926 146.68C64.778 146.68 64.1433 146.547 63.5886 146.28C63.0446 146.013 62.618 145.635 62.3086 145.144C61.9993 144.664 61.8446 144.109 61.8446 143.48ZM62.9966 139.32C62.9966 139.885 63.1086 140.365 63.3326 140.76C63.5673 141.155 63.8766 141.453 64.2606 141.656C64.6446 141.859 65.0606 141.96 65.5086 141.96C65.882 141.96 66.25 141.859 66.6126 141.656C66.9753 141.453 67.274 141.155 67.5086 140.76C67.7433 140.365 67.8606 139.885 67.8606 139.32C67.8606 138.755 67.7433 138.275 67.5086 137.88C67.274 137.485 66.9753 137.187 66.6126 136.984C66.25 136.781 65.882 136.68 65.5086 136.68C65.0606 136.68 64.6446 136.781 64.2606 136.984C63.8766 137.187 63.5673 137.485 63.3326 137.88C63.1086 138.275 62.9966 138.755 62.9966 139.32ZM71.8496 137.336L71.2256 136.392C71.503 136.189 71.8816 135.987 72.3616 135.784C72.8523 135.581 73.439 135.48 74.1216 135.48C74.975 135.48 75.6683 135.677 76.2016 136.072C76.735 136.456 77.0016 137.005 77.0016 137.72V143H75.7216V142.008C75.487 142.392 75.135 142.68 74.6656 142.872C74.1963 143.064 73.7376 143.16 73.2896 143.16C72.8416 143.16 72.4203 143.069 72.0256 142.888C71.6416 142.696 71.3323 142.424 71.0976 142.072C70.863 141.72 70.7456 141.293 70.7456 140.792C70.7456 140.077 70.9963 139.507 71.4976 139.08C72.0096 138.643 72.719 138.424 73.6256 138.424C74.1163 138.424 74.5323 138.483 74.8736 138.6C75.2256 138.707 75.5083 138.829 75.7216 138.968V137.896C75.7216 137.395 75.5563 137.053 75.2256 136.872C74.9056 136.691 74.5163 136.6 74.0576 136.6C73.503 136.6 73.039 136.691 72.6656 136.872C72.2923 137.053 72.0203 137.208 71.8496 137.336ZM72.0416 140.728C72.0416 141.155 72.1856 141.485 72.4736 141.72C72.7723 141.944 73.1563 142.056 73.6256 142.056C74.2123 142.056 74.7083 141.88 75.1136 141.528C75.519 141.176 75.7216 140.707 75.7216 140.12V139.848C75.423 139.699 75.119 139.592 74.8096 139.528C74.5003 139.464 74.175 139.432 73.8336 139.432C73.215 139.432 72.7616 139.549 72.4736 139.784C72.1856 140.008 72.0416 140.323 72.0416 140.728Z" fill="#083651"/>
<g filter="url(#filter0_d)">
<path d="M52.3796 50.6991L58.3767 53.8012C58.4003 55.123 57.5367 56.3374 56.3151 57.0532C54.5131 58.1087 52.1967 57.5038 51.1412 55.7019C50.1327 53.9806 50.7616 51.8116 52.3796 50.6991Z" fill="#704C0F"/>
<path d="M55.5158 55.6793C55.5196 55.6768 55.5238 55.6748 55.5276 55.6723C56.0161 55.3841 55.9399 54.6537 55.4157 54.4371C54.0177 53.86 52.7693 52.9568 51.9899 51.8415C51.8744 51.6764 51.7688 51.5043 51.6676 51.329C51.8772 51.0958 52.1136 50.882 52.3796 50.6987L58.3767 53.8009C58.3791 53.9424 58.3676 54.0818 58.3495 54.2202C58.3426 54.2761 58.3329 54.3318 58.3231 54.387C58.3096 54.4597 58.2925 54.532 58.2734 54.6036C58.2296 54.7747 58.1736 54.9422 58.1027 55.1056C58.1024 55.1067 58.102 55.1077 58.1017 55.1088C57.7582 55.8969 57.1174 56.5828 56.3164 57.0525C55.1209 57.7534 53.6113 57.6908 52.4262 56.9722C51.5271 56.4274 51.0557 55.7193 50.8207 54.9742C51.9986 56.2592 53.951 56.5964 55.5158 55.6793Z" fill="#5E400D"/>
<path d="M55.2582 39.175C57.0486 38.7324 59.1029 38.9428 59.1029 38.9428L61.5716 37.4878L62.7797 39.0811C62.7797 39.0811 65.0218 39.0238 66.0463 39.5167C67.2151 40.0792 68.24 41.8578 68.7598 42.9665C69.1818 43.8666 69.2392 44.8035 69.0914 45.7346C68.8999 46.9395 68.3645 48.1344 67.8308 49.2261C67.262 50.3893 65.9858 51.1896 64.9122 51.8272C64.5625 52.0348 64.1971 52.2343 63.8223 52.4238C61.3216 50.9637 55.2582 39.175 55.2582 39.175Z" fill="#F5D3A6"/>
<path d="M51.1548 43.1164C51.5807 41.5818 53.0221 39.9857 54.5139 39.4069C54.752 39.3144 55.0023 39.2379 55.2582 39.1746C55.2582 39.175 61.322 50.9633 63.8227 52.4235C62.8075 52.9366 61.7194 53.3691 60.6517 53.6417C57.8075 54.3676 53.942 52.9401 52.2593 50.5329C50.8023 48.4494 50.489 45.5152 51.1548 43.1164Z" fill="#704C0F"/>
<path d="M52.9577 45.7148C53.6357 43.8711 55.2046 42.5292 56.5775 41.6538C56.6474 41.7824 56.719 41.9131 56.7931 42.0487C55.4831 42.8907 53.9972 44.1646 53.3711 45.867C52.7846 47.461 52.6671 49.4385 52.7064 51.0878C52.5461 50.9087 52.3935 50.7255 52.259 50.5333C52.2565 50.5298 52.2544 50.5263 52.252 50.5228C52.2527 48.9657 52.4116 47.1989 52.9577 45.7148Z" fill="#5E400D"/>
<path d="M57.8594 49.8376C58.6409 49.031 59.2197 47.9964 59.6456 46.9959C59.7405 47.1506 59.8358 47.3039 59.931 47.4569C59.5003 48.4042 58.9301 49.3662 58.1761 50.1442C57.2249 51.1257 56.1099 52.0876 55.1327 52.8768C54.9884 52.8059 54.8466 52.7318 54.7072 52.6543C55.7067 51.8537 56.8737 50.8548 57.8594 49.8376Z" fill="#5E400D"/>
<path d="M55.9048 53.2158C57.0667 52.8525 58.394 52.3557 59.4182 51.74C60.2425 51.2446 60.9135 50.4971 61.4357 49.7469C61.5278 49.8783 61.6189 50.0045 61.7096 50.1296C61.1715 50.8761 60.488 51.6114 59.6453 52.1182C58.7438 52.6602 57.6362 53.108 56.6008 53.4571C56.3658 53.3865 56.1343 53.3041 55.9048 53.2158Z" fill="#5E400D"/>
<path d="M71.3307 44.1885L69.1564 44.5915C69.1756 44.9718 69.1519 45.3535 69.0914 45.7346C68.8999 46.9395 68.3645 48.1344 67.8308 49.2261C67.5826 49.7337 67.196 50.1689 66.7541 50.5552L67.0625 51.7695L70.8401 54.346L76.4617 47.0824L71.3307 44.1885Z" fill="#F5D3A6"/>
<path d="M86.9832 102.927L86.3904 102.631C85.8516 102.361 85.2011 102.467 84.7752 102.893C84.5611 103.107 84.4224 103.385 84.3796 103.684L83.75 108.09L81.2062 110.316C81.0553 110.448 80.9688 110.638 80.9688 110.839V111.274C80.9688 111.636 81.2458 111.937 81.6064 111.967L84.89 112.24C85.052 112.254 85.2133 112.21 85.3464 112.117L87.7505 110.434L86.9832 102.927Z" fill="#F0C792"/>
<path d="M79.356 39.7052C75.1702 36.2582 70.4834 33.4682 65.4539 31.4417C63.7076 30.7377 61.9377 30.0483 60.457 29.5195C55.5898 27.7812 41.6836 27.7812 41.6836 27.7812L30.7512 27.0599C30.2099 27.0759 29.7267 27.4044 29.5135 27.9026C29.1596 28.7279 29.6693 29.6673 30.5537 29.8213L36.8164 30.9102L35.8565 31.7101C35.3479 32.1339 35.4769 32.9471 36.0915 33.1929C36.3307 33.2885 36.6002 33.2739 36.8275 33.1525L41.6836 30.5625L50.3507 32.5626C50.5985 32.6196 50.8489 32.6655 51.1006 32.6999L58.3711 33.6914L72.625 42.0352L83.888 43.8972C82.5009 42.4676 80.8978 40.9748 79.356 39.7052Z" fill="#F5D3A6"/>
<path d="M86.7631 66.4869C90.3475 65.4759 94.0994 63.5645 95.5001 62.816C95.2932 62.1471 95.0843 61.4778 94.875 60.8086C94.1606 58.5228 92.3896 55.3563 90.5508 52.4186C88.5953 49.2946 86.4475 46.5349 83.888 43.8969L72.625 42.0352L71.3307 44.1885C73.1767 45.4808 73.6864 48.0517 72.4143 49.9113L72.1251 50.3341C71.0046 51.9715 68.8752 52.5751 67.0625 51.7695L66.0195 55.5938L73.4253 62.4704C74.745 63.6959 75.6771 65.2735 76.1169 67.0083C77.4769 67.1467 82.8447 67.5921 86.7631 66.4869Z" fill="#7F8B4B"/>
<path d="M88.3853 72.6289C92.6712 71.9471 97.2001 68.6868 97.2001 68.6868C96.6957 66.7455 96.1081 64.7833 95.5001 62.8159C94.0994 63.5645 90.3475 65.4759 86.7631 66.4868C82.8451 67.592 77.4769 67.1467 76.1172 67.0087C76.1805 67.2586 76.234 67.5114 76.2764 67.7673C76.5083 69.1582 76.42 70.5749 76.0293 71.9127C76.0293 71.9127 83.2866 73.44 88.3853 72.6289Z" fill="#F5D3A6"/>
<path d="M98.6992 77.1484C98.5164 74.4072 97.9493 71.5699 97.2001 68.6868C97.2001 68.6868 92.6712 71.9471 88.3853 72.6289C83.2862 73.44 76.0289 71.9127 76.0289 71.9127C75.8506 72.5229 75.6093 73.117 75.3065 73.6844L75.0941 74.0825C74.3855 75.4112 73.3655 76.5484 72.1212 77.3967L68.6781 79.7444C67.139 80.7936 65.6743 81.9478 64.2941 83.1987L55.2422 91.4023L51.0296 93.2748L56.3759 99.0546L58.0234 98.3555L68.6888 93.8909C71.5354 92.6995 74.2364 91.1864 76.7395 89.3821L85.2227 83.2665L87.2266 96.2695L86.6971 106.329C86.5914 108.335 87.3423 110.292 88.7629 111.712C89.3372 112.287 90.1166 112.609 90.9291 112.609C91.6793 112.609 92.4035 112.334 92.9643 111.835C94.4276 110.535 95.4128 108.781 95.7633 106.855L95.918 106.004C95.918 106.004 97.3086 98.3555 98.3516 92.0977C99.3945 85.8398 99.0469 82.3633 98.6992 77.1484Z" fill="#514654"/>
<path d="M49.0386 94.1596L40.9667 98.3068L28.125 106.004L22.9102 110.176L22.5149 110.769C22.0893 111.407 22.5469 112.262 23.3141 112.262H25.9594C26.0123 112.262 26.0651 112.257 26.1173 112.249L27.6066 112C27.9293 111.946 28.2025 111.732 28.3315 111.431L29.168 109.48L46.5508 103.223L56.3755 99.0546L51.0293 93.2748L49.0386 94.1596Z" fill="#F5D3A6"/>
<path d="M40.9667 98.3068L37.6397 100.301C37.6118 100.443 37.6108 100.592 37.6404 100.739C37.7812 101.444 38.5349 101.84 39.1951 101.557L43.5453 99.6929L42.8319 100.942C42.544 101.445 43.0621 102.026 43.5954 101.798C44.3529 101.473 45.01 100.952 45.4988 100.289L50.384 93.6593L50.5203 93.5015L49.039 94.16L40.9667 98.3068Z" fill="#F0C792"/>
<path d="M66.0195 55.5938L63.2383 60.1133L58.7187 73.6719L54.1992 79.9297L47.9414 90.0117L40.374 96.5921C40.1091 96.8226 39.9881 97.1772 40.0569 97.5214C40.1786 98.1302 40.8297 98.473 41.4006 98.2282L45.1602 96.6172L44.5434 97.6963C44.2945 98.1319 44.7423 98.6339 45.2033 98.4361C45.8579 98.1555 46.4256 97.7053 46.8484 97.1321L51.0703 91.4023L59.7617 81.3203L65.6448 71.7215C66.1256 70.9369 66.5487 70.1181 66.9099 69.2719L70.8398 60.0702L66.0195 55.5938Z" fill="#F5D3A6"/>
<path d="M71.7694 44.4357L71.331 44.1885L69.1568 44.5915C69.1759 44.9718 69.1523 45.3535 69.0918 45.7346C68.9002 46.9395 68.3648 48.1344 67.8312 49.2261C67.5829 49.7337 67.1963 50.1689 66.7545 50.5552L67.0625 51.7695C68.6913 52.4934 70.5856 52.065 71.7638 50.786C71.1923 48.1636 71.4079 45.9703 71.7694 44.4357Z" fill="#F0C792"/>
<path d="M74.8295 57.5723C73.1246 55.1241 72.2029 52.8275 71.7586 50.7895C70.5808 52.0748 68.6947 52.4947 67.0625 51.7695L66.0195 55.5938L73.4253 62.4704C74.745 63.6959 75.6771 65.2735 76.1169 67.0083C77.1042 67.1085 80.2049 67.3703 83.3297 67.0834C80.5286 64.5094 77.3785 61.2331 74.8295 57.5723Z" fill="#727D43"/>
<path d="M71.7479 44.5279C72.108 42.9474 72.625 42.0352 72.625 42.0352L71.3307 44.1885C71.4795 44.2928 71.6165 44.4079 71.7479 44.5279Z" fill="#727D43"/>
<path d="M76.6189 79.7875C79.5962 78.3607 81.7833 75.8068 82.7953 72.7965C79.1842 72.5768 76.0293 71.9131 76.0293 71.9131C75.8509 72.5232 75.6096 73.1174 75.3068 73.6847L75.0944 74.0828C74.3859 75.4116 73.3659 76.5487 72.1216 77.397L68.6784 79.7447C67.1393 80.794 65.6747 81.9482 64.2945 83.1991L58.4524 88.4935L76.6189 79.7875Z" fill="#403742"/>
<path d="M76.1169 67.0087C76.1801 67.2587 76.2337 67.5114 76.2761 67.7673C76.508 69.1583 76.4197 70.575 76.0289 71.9127C76.0289 71.9127 79.1842 72.5764 82.795 72.7961C83.2768 71.3627 83.4955 69.8271 83.4006 68.2582L83.3293 67.0834C80.2053 67.3706 77.1045 67.1088 76.1169 67.0087Z" fill="#F0C792"/>
<path d="M98.3516 90.707C97.3086 96.9648 95.918 104.613 95.918 104.613L95.7633 105.465C95.4132 107.391 94.4276 109.144 92.9643 110.445C92.4035 110.944 91.6793 111.219 90.9291 111.219C90.1166 111.219 89.3375 110.896 88.7629 110.322C87.5808 109.14 86.8643 107.586 86.7176 105.942L86.6971 106.329C86.5914 108.336 87.3423 110.292 88.7629 111.713C89.3372 112.287 90.1166 112.61 90.9291 112.61C91.6793 112.61 92.4035 112.335 92.9643 111.836C94.4276 110.536 95.4128 108.782 95.7633 106.856L95.918 106.004C95.918 106.004 97.3086 98.3555 98.3516 92.0977C98.9276 88.6413 99.0785 86.0335 99.0403 83.5126C99.0086 85.6212 98.8226 87.8795 98.3516 90.707Z" fill="#403742"/>
<path d="M87.7505 80.7741L85.2227 83.2661L86.0174 88.4236C86.679 84.4224 87.7505 80.7741 87.7505 80.7741Z" fill="#403742"/>
</g>
<defs>
<filter id="filter0_d" x="13" y="23" width="97" height="97" filterUnits="userSpaceOnUse" color-interpolation-filters="sRGB">
<feFlood flood-opacity="0" result="BackgroundImageFix"/>
<feColorMatrix in="SourceAlpha" type="matrix" values="0 0 0 0 0 0 0 0 0 0 0 0 0 0 0 0 0 0 127 0"/>
<feOffset dy="2"/>
<feGaussianBlur stdDeviation="2"/>
<feColorMatrix type="matrix" values="0 0 0 0 0 0 0 0 0 0 0 0 0 0 0 0 0 0 0.25 0"/>
<feBlend mode="normal" in2="BackgroundImageFix" result="effect1_dropShadow"/>
<feBlend mode="normal" in="SourceGraphic" in2="effect1_dropShadow" result="shape"/>
</filter>
</defs>
</svg>
